# xmcd
#
# Track frame offsets:
#	150
#	22138
#	37518
#	50364
#	67142
#	87363
#	105957
#	124039
#	139025
#	153078
#	174644
#	192977
#	211474
#
# Disc length: 3016 seconds
#
# Revision: 1
# Processed by: cddbd v1.5.2PL0 Copyright (c) Steve Scherf et al.
# Submitted via: audiograbber 1.83.01
#
DISCID=aa0bc60d
DTITLE=Various Artist - Bei dir angekommen
DYEAR=1900
DGENRE=
TTITLE0=Bei dir bin ich angekommen
TTITLE1=Vergiss es nicht
TTITLE2=Freut euch über Gott
TTITLE3=Jesus, die Sonne
TTITLE4=Wenn das Dunkel dieser Welt
TTITLE5=Darum freu ich mich
TTITLE6=Ewigkeit, Herrlichkeit
TTITLE7=Herr, weil mich festhält
TTITLE8=Lass mir das Ziel vor Augen bleiben
TTITLE9=Niemals
TTITLE10=Am Abend dieses Tages
TTITLE11=Geliebt, geborgen
TTITLE12=Er mache eure Herzen froh
EXTD=
EXTT0=
EXTT1=
EXTT2=
EXTT3=
EXTT4=
EXTT5=
EXTT6=
EXTT7=
EXTT8=
EXTT9=
EXTT10=
EXTT11=
EXTT12=
PLAYORDER=
